<?xml version="1.0" standalone="no"?>
<!DOCTYPE svg PUBLIC "-//W3C//DTD SVG 20010904//EN"
 "http://www.w3.org/TR/2001/REC-SVG-20010904/DTD/svg10.dtd">
<svg version="1.0" xmlns="http://www.w3.org/2000/svg"
 width="919.000000pt" height="332.000000pt" viewBox="0 0 919.000000 332.000000"
 preserveAspectRatio="xMidYMid meet">

<g transform="translate(0.000000,332.000000) scale(0.100000,-0.100000)"
fill="#000000" stroke="none">
<path d="M1552 1959 l3 -1281 424 -144 c233 -79 427 -144 432 -144 5 0 8 550
7 1282 l-3 1283 -420 142 c-231 78 -426 142 -433 142 -10 1 -12 -258 -10
-1280z"/>
<path d="M502 1784 l3 -755 303 -100 c167 -56 304 -99 306 -97 1 1 0 340 -4
752 l-5 748 -303 104 -302 103 2 -755z"/>
<path d="M6815 2258 c-62 -55 -27 -158 53 -158 85 1 122 91 63 151 -36 36 -79
38 -116 7z"/>
<path d="M7170 1705 l0 -545 65 0 65 0 0 545 0 545 -65 0 -65 0 0 -545z"/>
<path d="M8160 2038 l0 -212 -32 35 c-109 119 -283 151 -433 80 -78 -36 -135
-94 -177 -179 -28 -57 -33 -78 -36 -165 -8 -177 51 -311 170 -387 73 -48 139
-64 237 -58 96 6 158 33 224 101 l47 48 0 -70 0 -71 65 0 65 0 0 545 0 545
-65 0 -65 0 0 -212z m-177 -194 c52 -18 116 -77 142 -130 68 -145 24 -333 -95
-406 -161 -99 -356 -18 -405 168 -19 73 -19 105 0 177 25 97 91 173 171 197
47 14 137 11 187 -6z"/>
<path d="M4968 2184 c-5 -4 -8 -236 -8 -516 l0 -510 243 4 c222 3 247 6 298
26 185 73 233 300 94 435 -21 20 -53 42 -71 49 -19 7 -34 15 -34 18 0 3 14 11
31 19 46 20 104 84 117 129 44 147 -28 283 -173 328 -55 18 -483 33 -497 18z
m449 -125 c107 -40 134 -192 48 -268 -48 -42 -69 -46 -230 -46 l-140 0 -3 163
-2 162 149 0 c82 0 162 -5 178 -11z m11 -444 c75 -32 112 -86 112 -166 0 -66
-29 -119 -84 -150 -38 -22 -54 -24 -203 -27 l-163 -4 0 181 0 181 150 0 c113
0 160 -4 188 -15z"/>
<path d="M2870 1670 l0 -510 65 0 65 0 2 375 3 374 166 -372 166 -372 49 -3
49 -2 165 372 165 371 3 -371 2 -372 70 0 70 0 -2 508 -3 507 -70 3 -71 3
-168 -378 c-93 -208 -179 -397 -190 -421 l-21 -42 -187 417 -187 418 -70 3
-71 3 0 -511z"/>
<path d="M4040 1962 c0 -4 72 -185 160 -401 l160 -392 -79 -195 -80 -195 70 3
71 3 239 585 c131 321 239 588 239 593 0 4 -30 7 -67 5 l-67 -3 -121 -318
c-67 -174 -124 -319 -127 -322 -2 -3 -61 140 -129 318 l-124 322 -73 3 c-39 2
-72 -1 -72 -6z"/>
<path d="M5857 1964 c-11 -12 -8 -481 4 -550 30 -170 165 -273 343 -262 85 6
149 32 199 82 l37 37 0 -56 0 -55 70 0 70 0 -2 403 -3 402 -67 3 -68 3 0 -254
c0 -301 -6 -332 -74 -395 -48 -44 -89 -57 -173 -55 -84 3 -155 51 -189 128 -5
11 -11 144 -14 295 l-5 275 -60 3 c-34 2 -64 0 -68 -4z"/>
<path d="M6807 1964 c-4 -4 -7 -187 -7 -406 l0 -398 70 0 70 0 -2 403 -3 402
-60 3 c-34 2 -64 0 -68 -4z"/>
</g>
</svg>
